<svg width="430" height="717" viewBox="0 0 430 717" fill="none" xmlns="http://www.w3.org/2000/svg">
<g clip-path="url(#clip0_7_3)">
<rect width="430" height="717" fill="#404EED"/>
<g clip-path="url(#clip1_7_3)">
<path d="M86.9709 716.919H-95.89C-103.451 708.712 -108.067 699.206 -107.331 690.431C-105.792 671.5 -81.237 668.737 -57.4175 682.387L-52.7339 685.231C-51.9445 681.749 -50.6778 678.453 -48.9871 675.481C-37.0776 654.275 -10.1804 652.244 7.21587 667.762C9.13348 669.465 10.9246 671.368 12.5686 673.45C14.9077 669.523 17.576 665.901 20.5307 662.644C36.6556 644.931 55.7915 641.112 63.0845 652C69.5078 661.587 64.5565 680.031 52.3792 694.575C52.3792 694.575 88.3759 695.631 86.9709 716.919Z" fill="#404EED"/>
<path d="M313.123 716.512C298.336 679.462 290.039 635.1 290.039 635.1L289.37 630.794L259.596 635.1V716.512H313.123Z" fill="#2835BD"/>
<path d="M306.699 716.513C293.719 684.013 286.493 645.094 286.493 645.094L284.753 634.206L259.796 645.094V716.513H306.699Z" fill="black"/>
<path d="M311.383 608.125H300.544V716.561H311.383V608.125Z" fill="#2835BD"/>
<path d="M311.383 622.181C309.76 623.079 307.959 623.395 306.193 623.093C304.427 622.791 302.769 621.882 301.414 620.475L300.544 619.581V614.706L311.383 612.188V622.181Z" fill="black"/>
<path d="M294.79 716.513C302.216 714.319 312.32 702.375 312.32 702.375C312.32 702.375 315.866 711.638 317.94 716.513H325.434C326.243 716.518 327.044 716.316 327.784 715.92C328.525 715.525 329.188 714.943 329.731 714.215C330.274 713.486 330.685 712.627 330.936 711.693C331.187 710.759 331.273 709.771 331.188 708.794C330.853 704.813 329.314 700.344 326.973 693.844C323.025 683.038 321.754 677.35 314.059 677.35H307.101L291.043 668.738C280.739 675.319 273.646 679.138 267.558 683.525C258.592 690.188 251.5 703.35 258.458 716.513H294.79Z" fill="#FFC619"/>
<path d="M181.714 645.094V716.512H263.209C276.189 684.012 283.415 645.094 283.415 645.094L285.355 635.1L181.714 645.094Z" fill="#2835BD"/>
<path d="M264.815 647.287L181.714 656.712V716.512H243.872C249.894 699.856 264.815 647.287 264.815 647.287Z" fill="black"/>
<path d="M253.775 711.069C260.629 698.197 266.072 684.294 269.966 669.713" stroke="black" stroke-width="2" stroke-linecap="round" stroke-linejoin="round"/>
<path d="M244.073 701.156C240.63 701.156 237.328 702.817 234.894 705.773C232.46 708.729 231.093 712.738 231.093 716.919H257.053C257.053 712.738 255.686 708.729 253.251 705.773C250.817 702.817 247.515 701.156 244.073 701.156Z" fill="#404EED"/>
<path d="M262.54 716.512C275.52 684.012 282.813 645.094 282.813 645.094L262.54 716.512Z" fill="#2835BD"/>
<path d="M287.63 716.431C287.563 716.269 282.947 702.131 280.538 693.031L280.404 692.463C278.798 686.288 277.46 681.331 277.661 676.944L276.524 677.675C276.524 682.063 277.795 686.938 279.401 692.869L279.534 693.438C281.742 701.725 285.69 714.156 286.493 716.513H287.63V716.431Z" fill="black"/>
<path d="M329.448 714.562C329.861 714.073 330.173 713.471 330.359 712.808C330.544 712.145 330.6 711.438 330.519 710.744C330.05 704.975 327.575 698.069 324.965 690.919L322.289 683.281L321.285 683.769C322.155 686.369 323.092 688.888 323.962 691.406C327.106 700.1 330.117 708.469 329.448 714.562Z" fill="white"/>
<path d="M307.101 693.356C305.829 699.694 304.023 707.575 301.681 716.513H287.63C287.63 716.513 283.081 702.294 280.605 693.113C278.129 683.931 276.323 677.35 278.798 671.256C281.274 665.163 285.155 664.675 291.043 668.738L290.173 680.275L294.656 695.713L296.73 687.506C301.146 684.013 306.699 685.963 307.101 693.356Z" fill="#FFC619"/>
<path d="M288.968 711.394L287.831 707.413C285.355 698.556 283.214 691 281.742 684.094C280.538 678.406 279.534 671.662 280.137 668.656C279.645 669.384 279.219 670.174 278.865 671.012C278.865 675.4 280.07 681.494 280.672 684.419C282.211 691.406 284.352 698.963 286.827 707.819L287.965 711.881C288.455 713.561 288.924 715.104 289.37 716.512H290.574C290.039 715.05 289.571 713.425 288.968 711.394Z" fill="white"/>
<path d="M299.139 716.513C300.678 710.256 302.886 701.075 305.763 689.213C305.783 689.127 305.788 689.038 305.778 688.95C305.769 688.862 305.744 688.777 305.706 688.701C305.669 688.625 305.619 688.558 305.559 688.507C305.5 688.455 305.433 688.419 305.361 688.4C305.296 688.361 305.225 688.341 305.152 688.341C305.079 688.341 305.008 688.361 304.943 688.401C304.878 688.44 304.822 688.498 304.778 688.567C304.735 688.638 304.705 688.72 304.692 688.806C301.748 700.913 299.54 710.256 298.001 716.513H299.139Z" fill="white"/>
<path d="M304.558 643.387C296.128 641.925 292.916 642.656 289.771 651.269C286.627 659.881 288.233 667.194 293.451 676.456C298.67 685.719 311.517 684.012 316.401 681.819C321.285 679.625 325.568 673.694 327.976 665.325C330.385 656.956 329.649 647.775 326.036 642.737C322.423 637.7 316.334 633.556 310.848 635.669C305.361 637.781 304.558 643.387 304.558 643.387Z" fill="#DE3A93"/>
<path d="M308.64 655.494L306.097 654.681" stroke="black" stroke-width="2" stroke-linecap="round" stroke-linejoin="round"/>
<path d="M308.773 656.794L306.164 657.2" stroke="black" stroke-width="2" stroke-linecap="round" stroke-linejoin="round"/>
<path d="M327.24 655.25L329.247 653.625" stroke="black" stroke-width="2" stroke-linecap="round" stroke-linejoin="round"/>
<path d="M327.106 656.631L329.181 656.225" stroke="black" stroke-width="2" stroke-linecap="round" stroke-linejoin="round"/>
<path d="M301.815 635.1C300.41 635.1 299.339 636.238 299.272 637.05C299.206 637.863 301.748 640.463 305.027 645.419L305.896 645.013C302.819 635.425 303.22 635.019 301.815 635.1Z" fill="black"/>
<path d="M308.305 642.656C305.763 644.606 302.819 647.288 302.819 647.288" stroke="black" stroke-width="2" stroke-linecap="round" stroke-linejoin="round"/>
<path d="M307.101 693.356C307.904 689.213 308.506 685.719 308.84 683.038C309.777 676.05 308.037 674.913 305.495 674.019C302.952 673.125 301.146 671.419 299.942 666.138C298.737 660.856 298.001 660.938 296.529 661.831C294.923 662.887 293.547 664.391 292.515 666.219C291.712 667.925 291.846 669.875 293.385 674.669C294.403 677.667 296.039 680.297 298.135 682.306L296.73 687.506C301.882 687.263 304.96 688.075 307.101 693.356Z" fill="#FF78B9"/>
<path d="M315.464 690.106C314.728 686.125 313.792 681.819 315.464 680.681C317.137 679.544 322.289 676.619 325.099 669.225C325.158 669.041 325.246 668.873 325.36 668.732C325.473 668.59 325.609 668.478 325.76 668.403C325.909 668.326 326.071 668.288 326.233 668.29C326.395 668.292 326.556 668.334 326.705 668.413H326.839C326.961 668.466 327.072 668.549 327.167 668.658C327.261 668.766 327.335 668.897 327.385 669.041C327.436 669.187 327.461 669.343 327.459 669.5C327.457 669.658 327.428 669.813 327.374 669.956C326.005 673.491 324.371 676.863 322.49 680.031C322.88 681.937 323.372 683.809 323.962 685.638C320.884 687.506 315.464 690.106 315.464 690.106Z" fill="#FF78B9"/>
<path d="M299.005 677.106C299.104 676.972 299.158 676.799 299.158 676.619C299.158 676.439 299.104 676.265 299.005 676.131C298.004 674.858 297.109 673.47 296.328 671.987C295.057 669.306 293.853 664.512 294.723 663.294L293.786 664.35C293.637 664.545 293.524 664.777 293.455 665.028C293.386 665.281 293.362 665.548 293.384 665.812C293.738 668.207 294.417 670.513 295.392 672.637C296.201 674.24 297.143 675.736 298.202 677.106L298.603 677.269L299.005 677.106Z" fill="black"/>
<path d="M298.67 682.469C300.601 682.18 302.547 682.071 304.491 682.144" stroke="black" stroke-width="2" stroke-linecap="round" stroke-linejoin="round"/>
<path d="M292.314 704.569L296.529 688.319" stroke="black" stroke-width="2" stroke-linecap="round" stroke-linejoin="round"/>
<path d="M294.656 695.712L290.574 681.494" stroke="black" stroke-width="2" stroke-linecap="round" stroke-linejoin="round"/>
<path d="M315.531 690.756C316.736 698.637 319.345 709.687 319.345 709.687" stroke="black" stroke-width="2" stroke-linecap="round" stroke-linejoin="round"/>
<path d="M261.268 695.875C258.944 695.875 256.715 696.996 255.071 698.993C253.427 700.989 252.503 703.696 252.503 706.519V716.919H269.966V706.519C269.966 703.71 269.052 701.015 267.423 699.021C265.793 697.027 263.581 695.897 261.268 695.875Z" fill="#404EED"/>
<path d="M269.966 706.519C268.836 706.508 267.715 706.769 266.669 707.287C265.621 707.805 264.67 708.57 263.867 709.536C263.065 710.503 262.428 711.653 261.994 712.921C261.559 714.187 261.335 715.547 261.335 716.919H278.531C278.531 714.16 277.628 711.516 276.022 709.565C274.417 707.615 272.238 706.519 269.966 706.519Z" fill="#404EED"/>
<path d="M296.797 615.844L309.978 613.325" stroke="black" stroke-width="8" stroke-linecap="round" stroke-linejoin="round"/>
<path d="M324.363 645.581L324.832 646.475" stroke="#FFA8D2" stroke-width="3" stroke-linecap="round" stroke-linejoin="round"/>
<path d="M317.739 639.65C319.471 640.281 321.07 641.362 322.423 642.819" stroke="#FFA8D2" stroke-width="3" stroke-linecap="round" stroke-linejoin="round"/>
<path d="M309.643 613.406C320.817 611.131 338.748 606.094 348.049 603.088" stroke="#2835BD" stroke-width="8" stroke-linecap="round" stroke-linejoin="round"/>
<path d="M344.703 605.281L348.25 625.269" stroke="black" stroke-width="2" stroke-linecap="round" stroke-linejoin="round"/>
<path d="M351.595 624.619V622.019H337.812V624.7C337.784 625.071 337.693 625.43 337.544 625.756C336.854 626.977 336.481 628.42 336.474 629.9V640.544C336.475 642.343 337.01 644.08 337.981 645.438C338.952 646.796 340.293 647.683 341.759 647.938C343.735 648.263 345.738 648.263 347.714 647.938C349.162 647.664 350.48 646.766 351.426 645.407C352.372 644.05 352.884 642.323 352.866 640.544V629.9C352.883 628.428 352.533 626.983 351.863 625.756C351.675 625.422 351.58 625.023 351.595 624.619Z" fill="#8CD9FF"/>
<path d="M350.324 625.756V622.425H339.016V625.756C339.019 626.411 338.881 627.055 338.615 627.625C338.081 628.584 337.801 629.718 337.812 630.875V639.975C337.813 641.486 338.259 642.946 339.068 644.094C339.878 645.241 340.999 645.999 342.228 646.231C343.828 646.475 345.445 646.475 347.045 646.231C348.292 646.033 349.437 645.287 350.263 644.135C351.088 642.982 351.539 641.503 351.528 639.975V630.875C351.522 629.732 351.268 628.611 350.792 627.625C350.508 627.06 350.346 626.418 350.324 625.756Z" fill="#5865F2"/>
<path d="M337.812 623.319C337.812 624.456 340.89 625.35 344.703 625.35C348.517 625.35 351.595 624.456 351.595 623.319L344.703 619.988L337.812 623.319Z" fill="#8CD9FF"/>
<path d="M337.41 622.669C337.351 622.791 337.313 622.926 337.298 623.067C337.283 623.207 337.291 623.35 337.323 623.486C337.353 623.623 337.407 623.75 337.48 623.861C337.552 623.972 337.642 624.064 337.745 624.131C338.882 624.944 341.559 625.512 344.703 625.512C347.848 625.512 350.524 624.944 351.662 624.131C351.856 623.98 351.998 623.748 352.059 623.478C352.121 623.208 352.099 622.92 351.996 622.669L344.703 605.281L337.41 622.669Z" stroke="black" stroke-width="2" stroke-linecap="round" stroke-linejoin="round"/>
<path d="M344.034 640.625L341.96 640.056C341.76 639.969 341.593 639.795 341.492 639.569C341.397 639.342 341.379 639.079 341.441 638.836C341.504 638.593 341.642 638.39 341.826 638.269C341.927 638.197 342.038 638.151 342.154 638.132C342.269 638.114 342.387 638.124 342.499 638.162C342.612 638.2 342.717 638.265 342.808 638.353C342.899 638.441 342.975 638.551 343.031 638.675L344.034 640.625Z" fill="white"/>
<path d="M344.034 640.625L343.9 638.106C343.896 637.987 343.912 637.868 343.947 637.757C343.981 637.645 344.034 637.543 344.101 637.456C344.158 637.351 344.235 637.262 344.325 637.199C344.415 637.134 344.516 637.098 344.62 637.09C344.723 637.082 344.828 637.104 344.923 637.153C345.019 637.203 345.104 637.278 345.172 637.375C345.346 637.55 345.458 637.8 345.483 638.074C345.508 638.347 345.444 638.621 345.306 638.837L344.034 640.625Z" fill="white"/>
<path d="M344.436 642.981C343.298 643.387 342.228 642.981 341.96 642.087C341.692 641.194 342.094 640.706 343.164 640.381C343.631 640.235 344.081 640.016 344.503 639.731C345.372 639.162 345.841 639.812 346.041 640.544C346.242 641.275 345.573 642.494 344.436 642.981Z" fill="#121B80"/>
<path d="M342.386 640.526L341.583 640.509C341.029 640.497 340.571 641.033 340.562 641.706L340.56 641.78C340.551 642.452 340.993 643.007 341.547 643.019L342.349 643.037C342.903 643.048 343.36 642.512 343.37 641.839L343.371 641.766C343.381 641.093 342.94 640.538 342.386 640.526Z" fill="#FFE75C"/>
<path d="M346.175 631.037L348.049 629.819C348.197 629.665 348.311 629.469 348.383 629.25C348.414 629.127 348.425 628.998 348.415 628.871C348.405 628.743 348.374 628.619 348.324 628.506C348.274 628.393 348.207 628.292 348.125 628.211C348.043 628.13 347.949 628.069 347.848 628.031C347.626 627.956 347.389 627.991 347.188 628.128C346.988 628.265 346.84 628.494 346.777 628.762L346.175 631.037Z" fill="white"/>
<path d="M346.175 631.037L345.841 628.519C345.769 628.275 345.655 628.053 345.506 627.869C345.322 627.749 345.109 627.709 344.903 627.753C344.697 627.796 344.509 627.923 344.369 628.112C344.24 628.362 344.197 628.662 344.246 628.95C344.297 629.238 344.436 629.491 344.636 629.656L346.175 631.037Z" fill="white"/>
<path d="M346.711 630.712C347.647 631.525 348.116 632.825 347.647 633.556C347.179 634.287 346.644 634.369 345.774 633.475C345.408 633.113 345.002 632.812 344.57 632.581C344.404 632.532 344.254 632.428 344.133 632.282C344.012 632.137 343.927 631.953 343.886 631.753C343.844 631.553 343.849 631.342 343.898 631.145C343.949 630.947 344.042 630.769 344.168 630.631C344.569 629.819 345.774 629.9 346.711 630.712Z" fill="#121B80"/>
<path d="M346.246 633.636L346.719 634.424C347.045 634.968 347.673 635.087 348.121 634.69L348.169 634.647C348.618 634.251 348.716 633.488 348.389 632.944L347.916 632.156C347.589 631.613 346.962 631.493 346.514 631.89L346.465 631.933C346.017 632.329 345.919 633.092 346.246 633.636Z" fill="#FFE75C"/>
<path d="M344.703 624.05C348.51 624.05 351.595 623.141 351.595 622.019C351.595 620.897 348.51 619.988 344.703 619.988C340.897 619.988 337.812 620.897 337.812 622.019C337.812 623.141 340.897 624.05 344.703 624.05Z" fill="#8CD9FF"/>
<path d="M351.662 622.019H337.812V623.173H351.662V622.019Z" fill="#8CD9FF"/>
<path d="M347.514 622.669C347.179 622.75 346.911 622.994 346.911 623.4C346.919 623.486 346.942 623.568 346.977 623.644C347.012 623.718 347.059 623.784 347.114 623.838C347.17 623.891 347.235 623.93 347.303 623.952C347.372 623.974 347.443 623.98 347.514 623.969L348.651 623.725C348.802 623.694 348.94 623.607 349.048 623.476C349.156 623.345 349.228 623.177 349.253 622.994C349.246 622.91 349.224 622.83 349.188 622.757C349.153 622.686 349.105 622.624 349.047 622.577C348.99 622.531 348.924 622.501 348.856 622.488C348.787 622.475 348.717 622.482 348.651 622.506L347.514 622.669Z" fill="white"/>
<path d="M344.703 605.281L341.157 625.269" stroke="black" stroke-width="2" stroke-linecap="round" stroke-linejoin="round"/>
<path d="M345.239 606.663L343.499 602.113" stroke="black" stroke-width="2" stroke-linecap="round" stroke-linejoin="round"/>
<path d="M344.837 606.906L345.038 601.706" stroke="black" stroke-width="2" stroke-linecap="round" stroke-linejoin="round"/>
<path d="M326.036 659.637C328.244 656.55 327.909 654.681 327.173 654.112C326.437 653.544 325.3 654.6 323.293 658.5C321.285 662.4 322.958 663.862 326.036 659.637Z" fill="white"/>
<path d="M315.531 659.637C314.059 655.9 311.517 653.219 309.175 653.625C306.833 654.031 307.77 658.256 310.848 661.1C313.925 663.944 317.137 663.7 315.531 659.637Z" fill="white"/>
<path d="M327.039 656.225C327.169 655.494 327.122 654.732 326.906 654.031C326.303 653.95 325.367 654.763 324.095 656.956C324.229 658.094 324.698 658.906 325.233 658.988C325.768 659.069 326.906 657.931 327.039 656.225Z" fill="black"/>
<path d="M315.598 659.881C315.598 659.8 315.531 659.719 315.531 659.637C314.817 657.755 313.738 656.11 312.386 654.844C312 655.772 311.838 656.814 311.918 657.85C312.052 660.044 312.989 661.75 314.059 661.669C314.439 661.607 314.792 661.401 315.069 661.08C315.345 660.759 315.53 660.339 315.598 659.881Z" fill="black"/>
<path d="M316.869 668.006C321.085 666.706 322.757 666.137 323.426 667.275C324.096 668.412 323.493 669.712 322.49 671.012C323.56 673.856 323.226 675.156 321.152 675.156C319.639 675.025 318.173 674.469 316.869 673.531" stroke="black" stroke-width="2" stroke-linecap="round" stroke-linejoin="round"/>
<path d="M321.352 669.631C321.09 670.475 320.729 671.268 320.282 671.987" stroke="black" stroke-width="2" stroke-linecap="round" stroke-linejoin="round"/>
<path d="M34.9167 716.513H41.8752L47.0941 697.175H33.3778L34.9167 716.513Z" fill="black"/>
<path d="M122.634 716.513H85.3657C61.4125 716.513 47.6293 708.144 37.3254 698.638L34.9167 716.513H28.828C28.828 630.713 37.9276 549.3 37.9276 549.3C39.2657 540.119 53.6511 535.975 71.5157 543.531C89.3802 551.088 94.1308 560.756 93.4617 569.531C92.7926 578.306 87.1054 637.456 84.9643 665.163L88.7781 670.2C90.0935 671.86 91.069 673.872 91.627 676.073C92.1851 678.275 92.3095 680.604 91.9897 682.875L91.5882 685.556C106.308 697.094 129.057 691.325 122.634 716.513Z" fill="#29CC7A"/>
<path d="M45.3544 565.062C44.7522 575.3 44.6184 579.525 44.6184 581.15C44.6137 581.407 44.6532 581.662 44.7342 581.9C44.8144 582.137 44.9349 582.353 45.0868 582.531C49.0344 587.325 53.718 588.869 57.3979 589.438C57.6107 589.472 57.8268 589.451 58.0329 589.378C58.239 589.304 58.4297 589.18 58.5936 589.012C58.7575 588.843 58.8907 588.635 58.9843 588.401C59.078 588.166 59.1302 587.911 59.1376 587.65L59.8736 574.65" stroke="white" stroke-width="2" stroke-miterlimit="10" stroke-linecap="round"/>
<path d="M42.4105 660.369C40.1938 660.426 38.0039 659.782 36.0541 658.5" stroke="black" stroke-width="4" stroke-miterlimit="10" stroke-linecap="round"/>
<path d="M36.8571 664.106C39.7341 664.594 43.2803 663.05 43.2803 663.05" stroke="black" stroke-width="4" stroke-miterlimit="10" stroke-linecap="round"/>
<path d="M76.5338 605.769C75.9316 613.081 75.7978 621.125 78.8087 623.237C80.6821 624.619 84.4959 624.456 88.7112 622.019C90.3839 601.787 92.1904 584.4 93.0602 574.569L73.1215 578.55C71.1811 599.431 70.8466 606.256 76.5338 605.769Z" fill="#15AD75"/>
<path d="M90.4046 576.178C93.6022 568.037 85.0279 554.97 71.2527 546.992C57.4782 539.013 43.7192 539.145 40.5216 547.286C37.324 555.426 45.8984 568.494 59.6735 576.472C73.448 584.45 87.2071 584.319 90.4046 576.178Z" fill="black"/>
<path d="M37.3254 698.637C47.6293 708.144 61.4125 716.512 85.3657 716.512H122.634C123.268 714.175 123.629 711.741 123.704 709.281C84.1614 709.281 61.2117 708.306 29.3633 679.381C29.0956 690.919 28.8949 703.35 28.828 716.512H34.9167L37.3254 698.637Z" fill="#57F287"/>
<path d="M40.0017 657.769C41.7413 665.975 46.4919 672.231 50.6402 671.744C54.7885 671.256 54.9223 666.544 53.3165 658.662C52.9151 656.55 52.5805 654.519 52.246 652.406C51.0416 644.931 48.0307 641.681 44.3508 642.087C40.6708 642.494 38.1952 649.644 40.0017 657.769Z" fill="white"/>
<path d="M40.0017 657.769C41.7413 665.975 46.4919 672.231 50.6402 671.744C54.7885 671.256 54.9223 666.544 53.3165 658.662C52.9151 656.55 52.5805 654.519 52.246 652.406C51.0416 644.931 48.0307 641.681 44.3508 642.087C40.6708 642.494 38.1952 649.644 40.0017 657.769Z" fill="white"/>
<path d="M50.9078 657.85C51.5769 661.425 51.1086 664.594 49.9711 664.838C48.8337 665.081 47.4286 663.213 46.9602 658.744C46.4919 654.275 46.7595 651.838 47.897 651.838C49.0344 651.838 50.3057 654.194 50.9078 657.85Z" fill="black"/>
<path d="M89.6479 684.906C89.7469 684.914 89.8459 684.89 89.9363 684.84C90.0266 684.789 90.1049 684.711 90.1644 684.615C90.224 684.519 90.2628 684.406 90.2782 684.286C90.2929 684.167 90.2835 684.045 90.2501 683.931C88.9119 675.806 84.8305 674.669 77.2698 676.781C69.7091 678.894 66.6983 679.706 65.2263 680.356C63.7543 681.006 64.4234 681.413 74.3928 683.281C79.4343 684.311 84.5354 684.854 89.6479 684.906Z" fill="#15AD75"/>
<path d="M123.37 705.137C115.943 705.219 103.565 705.056 91.3875 704.081C68.7724 702.212 47.9638 691.975 29.4971 673.694V675.156C47.9638 693.275 68.7055 703.431 91.3206 705.219C102.695 706.194 114.203 706.356 121.764 706.356H123.571L123.37 705.137Z" fill="black"/>
<path d="M52.246 652.488C51.0417 645.013 48.0308 641.763 44.3508 642.169C40.6709 642.575 39.6672 645.906 39.3996 650.7C43.5419 652.323 47.9084 652.931 52.246 652.488Z" fill="#5865F2"/>
<path d="M147.189 587.244L124.909 602.356C125.29 602.784 125.77 603.061 126.284 603.148C126.799 603.235 127.323 603.129 127.786 602.844C129.057 602.194 132.135 598.781 133.339 597.969C134.544 597.156 137.956 595.531 139.629 594.719C141.691 593.727 143.628 592.386 145.383 590.738C146.855 589.275 147.39 588.706 147.189 587.244Z" fill="black"/>
<path d="M92.1904 531.1C88.109 528.012 87.9083 528.094 85.6334 523.137C83.3585 518.181 80.4814 515.744 77.136 515.175L81.2843 551.656C89.9824 554.744 95.3351 549.381 96.5395 544.1C97.7438 538.819 96.3387 534.187 92.1904 531.1Z" fill="#3442D9"/>
<path d="M88.109 535.894C86.9716 529.962 83.9607 523.056 80.4145 517.856C79.1439 515.978 78.2427 513.772 77.779 511.406C77.3153 509.041 77.3013 506.579 77.7382 504.206L79.2102 496.081C80.2452 490.442 79.6933 484.544 77.6438 479.331C75.5938 474.117 72.164 469.888 67.9026 467.319C65.4571 465.857 62.7955 465.001 60.0743 464.8C54.9538 464.345 49.8888 466.33 45.9539 470.335C42.019 474.339 39.524 480.048 38.9981 486.25C38.887 487.301 38.8422 488.36 38.8643 489.419V492.913L38.9981 507.538C39.1433 514.108 37.9965 520.625 35.6527 526.55C34.6798 528.901 33.9392 531.383 33.4447 533.944L66.163 576.194C81.7527 573.025 91.5213 554.744 88.109 535.894Z" fill="#3442D9"/>
<path d="M66.2299 576.194C81.7527 573.025 91.5213 554.744 88.109 535.894C87.0385 530.288 84.2952 523.787 81.0167 518.75" stroke="black" stroke-width="2" stroke-miterlimit="10" stroke-linecap="round"/>
<path d="M77.6713 537.113C80.7491 530.938 81.9535 531.75 87.44 533.538C91.8559 534.919 96.941 545.888 90.1832 551.413C83.4254 556.938 69.6423 553.606 77.6713 537.113Z" fill="#3442D9"/>
<path d="M62.4181 518.902C63.035 518.329 63.1341 517.23 62.6403 516.445C62.1465 515.661 61.2466 515.489 60.6303 516.061C60.0141 516.634 59.9144 517.734 60.4082 518.518C60.902 519.302 61.8019 519.474 62.4181 518.902Z" fill="black"/>
<path d="M70.8459 519.537C71.4622 518.965 71.5619 517.865 71.0681 517.081C70.5743 516.297 69.6744 516.125 69.0575 516.698C68.4412 517.27 68.3415 518.37 68.8353 519.154C69.3291 519.938 70.229 520.11 70.8459 519.537Z" fill="black"/>
<path d="M69.9768 518.263C77.136 525.413 74.192 530.531 79.9461 541.094" stroke="white" stroke-width="3.00593" stroke-miterlimit="10" stroke-linecap="round"/>
<path d="M61.8808 534.269C66.2968 530.531 67.635 529.475 69.3077 529.556L73.6568 530.044L72.5193 551.494L61.4794 551.088L61.8808 534.269Z" fill="#FFC619"/>
<path d="M83.2916 528.825C83.3752 528.541 83.4026 528.238 83.3732 527.939C83.3438 527.64 83.2574 527.353 83.1216 527.101C82.9851 526.849 82.8031 526.639 82.589 526.487C82.3742 526.335 82.134 526.245 81.8865 526.225L74.5265 524.925C73.9926 524.856 73.4547 525.012 73.0044 525.367C72.5534 525.722 72.2169 526.254 72.0509 526.875L67.9026 545.563C67.8196 545.847 67.7915 546.15 67.821 546.449C67.8504 546.748 67.9367 547.035 68.0725 547.287C68.209 547.539 68.391 547.749 68.6058 547.901C68.8199 548.053 69.0601 548.142 69.3077 548.163L76.6676 549.463C77.2022 549.532 77.7395 549.376 78.1905 549.021C78.6407 548.665 78.9773 548.133 79.1432 547.513L83.2916 528.825Z" fill="black"/>
<path d="M82.957 526.956L83.7599 528.094L81.5519 528.338L82.957 526.956Z" fill="black"/>
<path d="M86.5701 539.306C85.6334 537.438 84.7635 535.081 82.221 534.594L81.8865 538.494L86.5701 539.306Z" fill="#FFC619"/>
<path d="M84.0276 529.881C84.0978 529.598 84.1159 529.299 84.0805 529.005C84.045 528.712 83.9573 528.432 83.8235 528.184C83.6897 527.936 83.5131 527.727 83.3056 527.571C83.0982 527.415 82.8647 527.316 82.6225 527.281L75.1957 525.981C74.6637 525.927 74.1311 526.089 73.6835 526.442C73.2352 526.795 72.896 527.319 72.72 527.931L68.5717 546.619C68.5015 546.902 68.4834 547.201 68.5189 547.495C68.5543 547.788 68.642 548.068 68.7758 548.316C68.9096 548.564 69.0862 548.774 69.2937 548.929C69.5017 549.085 69.7346 549.184 69.9768 549.219L77.4036 550.437C77.9242 550.541 78.4581 550.407 78.9024 550.063C79.3467 549.718 79.6712 549.186 79.8124 548.569L84.0276 529.881Z" fill="white"/>
<path d="M81.7527 537.275L84.7636 537.844C85.3738 537.926 85.9325 538.296 86.3205 538.872C86.7086 539.45 86.8939 540.189 86.8377 540.931C86.8223 541.317 86.7407 541.695 86.5982 542.04C86.455 542.385 86.2543 542.69 86.0087 542.935C85.7625 543.18 85.4775 543.36 85.1704 543.462C84.8639 543.565 84.5428 543.589 84.2283 543.531L82.0203 543.125C81.3345 543.006 80.7002 542.614 80.2158 542.012C79.732 541.409 79.4256 540.63 79.344 539.794C79.3272 539.422 79.3814 539.049 79.5019 538.707C79.6223 538.364 79.8063 538.059 80.0385 537.815C80.2713 537.572 80.547 537.397 80.8441 537.303C81.1411 537.21 81.4523 537.2 81.7527 537.275Z" fill="#FFC619"/>
<path d="M80.749 542.719L82.8232 543.125C83.1705 543.179 83.5037 543.322 83.8001 543.547C84.0965 543.772 84.3487 544.074 84.5394 544.429C84.7308 544.785 84.8559 545.187 84.906 545.607C84.9562 546.027 84.9302 546.455 84.8305 546.862C84.6879 547.517 84.3467 548.083 83.875 548.444C83.4033 548.806 82.8366 548.938 82.2879 548.812L81.0167 548.569C80.3228 548.452 79.6791 548.064 79.184 547.463C78.6889 546.862 78.3691 546.08 78.2734 545.237C78.254 544.856 78.3089 544.476 78.4327 544.125C78.5571 543.775 78.7471 543.465 78.988 543.219C79.2289 542.975 79.5132 542.802 79.8197 542.715C80.1254 542.628 80.4439 542.629 80.749 542.719Z" fill="#FFC619"/>
<path d="M74.2589 551.981L67.0328 550.762L67.3673 547.188L74.5935 548.488L74.2589 551.981Z" fill="#FFC619"/>
<path d="M75.9985 537.762L71.4488 536.95C71.232 536.914 71.0286 536.803 70.862 536.631C70.696 536.458 70.5742 536.23 70.512 535.975L70.1106 534.512L69.776 531.506L67.3004 542.069L74.6604 543.369C75.3455 543.48 76.0414 543.308 76.6362 542.88C77.231 542.453 77.69 541.796 77.9389 541.012C78.0185 540.641 78.0292 540.253 77.971 539.876C77.9121 539.499 77.7857 539.142 77.6003 538.832C77.415 538.521 77.1748 538.264 76.8984 538.079C76.6214 537.894 76.3143 537.786 75.9985 537.762Z" fill="#FFC619"/>
<path d="M74.5265 543.287L67.3004 542.069L67.635 547.919L73.1884 548.894C73.8661 549.016 74.5573 548.847 75.1434 548.418C75.7295 547.988 76.1738 547.322 76.4 546.537C76.4916 546.172 76.5137 545.786 76.4649 545.408C76.4154 545.03 76.2956 544.672 76.1156 544.358C75.935 544.046 75.6981 543.786 75.4225 543.6C75.1475 543.415 74.841 543.308 74.5265 543.287Z" fill="#FFC619"/>
<path d="M125.778 579.119C125.979 570.344 120.024 568.963 115.943 565.875C111.862 562.788 107.044 556.288 102.026 551.9C97.0078 547.513 92.6588 547.594 84.1614 550.763L93.8631 573.675C99.3496 577.088 100.554 580.825 103.498 585.863C106.442 590.9 110.39 592.85 114.337 591.956C116.411 596.1 116.813 597.075 119.824 595.775C122.835 594.475 127.786 591.713 129.124 586.919C130.462 582.125 128.522 581.313 125.778 579.119Z" fill="#66BCFF"/>
<path d="M120.76 593.013C118.218 592.281 117.214 590.575 115.608 587.894L114.203 585.619C107.312 583.913 104.502 579.444 102.963 576.194C102.227 574.65 100.889 573.431 99.6173 572.294C98.346 571.156 97.0747 569.938 96.3388 568.475C95.7848 567.38 95.293 566.24 94.8668 565.063C94.3315 563.356 93.8631 562.219 92.9933 561.894C92.1235 561.569 90.6515 562.219 89.2464 562.95C87.9705 563.697 86.6216 564.243 85.2319 564.575C85.1168 564.601 84.9984 564.573 84.8994 564.498C84.8004 564.423 84.7281 564.305 84.6967 564.169C84.6927 564.022 84.7308 563.876 84.8037 563.758C84.8767 563.64 84.9804 563.556 85.0981 563.519C86.4075 563.251 87.6721 562.731 88.845 561.975C90.4508 561.163 91.789 560.431 93.1941 560.919C94.5991 561.406 95.0675 562.869 95.6697 564.656C96.2718 566.444 96.4726 566.769 97.0078 567.906C97.893 569.27 98.9556 570.45 100.153 571.4C101.491 572.7 102.896 574 103.699 575.706C105.238 579.038 107.914 583.019 114.538 584.644H114.672L114.806 584.806C115.408 585.7 115.876 586.594 116.344 587.325C117.816 589.844 118.753 591.388 120.894 592.038C120.952 592.032 121.01 592.044 121.063 592.073C121.116 592.103 121.161 592.149 121.195 592.207C121.229 592.263 121.249 592.331 121.256 592.401C121.262 592.471 121.252 592.542 121.229 592.606C121.233 592.677 121.223 592.748 121.199 592.811C121.175 592.875 121.137 592.93 121.09 592.972C121.043 593.013 120.987 593.038 120.93 593.045C120.872 593.052 120.814 593.041 120.76 593.013Z" fill="#45AAF7"/>
<path d="M93.4617 560.188C92.5624 563.676 91.9796 567.272 91.722 570.912" stroke="black" stroke-width="2" stroke-miterlimit="10" stroke-linecap="round"/>
<path d="M97.4093 602.437C91.3206 609.1 86.1687 607.231 83.7599 606.906C81.3512 606.581 81.6189 604.469 81.4181 602.681C81.2174 600.894 81.0836 598.212 81.0836 598.212C74.9949 597.725 74.2589 592.687 74.1251 588.219C73.9913 583.75 73.0546 583.1 72.5862 579.931C65.245 578.33 58.3066 574.698 52.3076 569.315C46.3085 563.933 41.4115 556.945 37.9945 548.894L44.3508 543.287L58.5354 554.5C68.1033 550.194 73.3891 548 78.5411 547.594C83.693 547.187 88.7781 549.544 90.4508 558.237C92.1235 566.931 92.3242 569.612 93.8631 573.756C94.2646 574.812 94.9337 576.275 95.6027 577.819C97.4762 582.45 99.4165 588.95 95.6027 596.019C96.0678 598.212 96.672 600.358 97.4093 602.437Z" fill="#8CD9FF"/>
<path d="M48.3653 565.306C48.1646 559.538 49.9711 555.475 53.2496 554.825L44.953 547.838L38.9312 551.006C40.4701 556.206 44.4177 561.894 48.3653 565.306Z" fill="black"/>
<path d="M85.7672 603.981L85.901 602.925C84.6966 602.681 84.6297 601.625 84.2952 596.669V596.019L84.0276 595.856C81.3512 595.044 79.5447 593.094 79.4109 586.512C79.3881 583.387 78.8656 580.296 77.872 577.412C77.6124 576.736 77.4103 576.027 77.2698 575.3C77.136 574.65 76.9353 574 76.8014 573.431C76.0461 571.138 75.8373 568.632 76.1993 566.2C76.4669 563.681 76.2662 562.3 75.5971 561.569C74.928 560.837 73.2553 561.081 70.7797 562.056H70.4451C66.4975 563.6 58.6023 566.769 50.6402 567.581L51.6438 568.475C59.4052 567.581 66.899 564.575 70.7128 563.112L71.0473 562.95C73.0546 562.137 74.4596 561.731 75.0618 562.3C75.664 562.869 75.5302 563.925 75.3295 565.956C74.9728 568.555 75.2037 571.224 75.9985 573.675C76.1718 574.257 76.3063 574.855 76.4 575.462C76.6007 576.194 76.8014 576.925 77.0691 577.656C78.0239 580.438 78.5237 583.418 78.5411 586.431C78.6749 592.525 80.08 595.531 83.4923 596.75C83.7599 601.706 83.8938 603.575 85.7672 603.981Z" fill="#66BCFF"/>
<path d="M62.0147 533.131C60.0743 531.1 58.6023 531.263 56.2605 532.481C53.7849 529.719 50.5733 529.313 47.2279 530.694C43.8824 532.075 38.7305 533.944 35.7196 534.919C35.5517 534.995 35.369 535.011 35.1937 534.964C35.0184 534.917 34.8578 534.811 34.7307 534.657C34.6042 534.503 34.5166 534.308 34.4785 534.095C34.4396 533.882 34.453 533.66 34.5152 533.456L36.7232 523.706C29.564 530.206 27.2222 544.1 29.4971 551.656C31.772 559.213 41.6745 559.131 44.8192 557.019C47.9639 554.906 49.0344 554.256 52.6475 555.069C56.2605 555.881 59.0707 556.45 63.8212 552.063L66.6314 550.925C67.7019 543.531 66.7652 538.169 62.0147 533.131Z" fill="#3442D9"/>
<path d="M62.0147 533.131C60.0743 531.1 58.6023 531.262 56.2605 532.481C53.7849 529.719 50.5733 529.312 47.2279 530.694C43.8824 532.075 38.7305 533.944 35.7196 534.919" stroke="black" stroke-width="2" stroke-miterlimit="10" stroke-linecap="round"/>
<path d="M56.2605 532.481C58.2591 534.361 59.9231 536.712 61.1536 539.392C62.384 542.074 63.1548 545.029 63.4198 548.081" stroke="black" stroke-width="2" stroke-miterlimit="10" stroke-linecap="round"/>
<path d="M76.5338 530.044C76.5639 529.932 76.5739 529.813 76.5626 529.695C76.5512 529.578 76.5191 529.465 76.4676 529.365C76.4167 529.264 76.3485 529.178 76.2675 529.113C76.1866 529.048 76.0949 529.005 75.9985 528.987H75.3295C75.1435 528.938 74.9487 528.978 74.7868 529.1C74.6242 529.221 74.5072 529.413 74.4597 529.637L73.8575 532.319C73.8267 532.437 73.8187 532.562 73.8341 532.685C73.8494 532.808 73.8876 532.924 73.9451 533.026C74.0033 533.128 74.0803 533.212 74.1693 533.273C74.2582 533.333 74.358 533.368 74.4597 533.375H75.1287C75.3047 533.403 75.4827 533.351 75.6306 533.232C75.7778 533.112 75.8848 532.933 75.9316 532.725L76.5338 530.044Z" fill="#29CC7A"/>
<path d="M65.8284 514.444C66.3456 513.172 67.1091 512.072 68.0525 511.237C68.9966 510.403 70.0932 509.858 71.248 509.65C71.3818 509.65 71.4488 509.488 71.3819 509.406C70.512 505.506 70.9135 503.313 72.0509 500.469C72.0623 500.448 72.0697 500.425 72.0723 500.4C72.075 500.376 72.073 500.351 72.067 500.327C72.0603 500.304 72.0496 500.282 72.0349 500.264C72.0208 500.247 72.0034 500.233 71.984 500.225C68.2372 498.275 66.8321 495.025 66.4306 492.588C66.3637 492.425 66.163 492.344 66.0961 492.506C64.4234 496.569 62.1485 496.731 60.2081 496.406C60.0743 496.406 60.0074 496.569 60.0743 496.65C62.0147 501.2 60.6096 504.45 58.6692 506.725C58.6592 506.757 58.6538 506.791 58.6552 506.825C58.6565 506.86 58.6639 506.893 58.6766 506.924C58.6893 506.955 58.7067 506.982 58.7288 507.003C58.7502 507.025 58.7756 507.041 58.803 507.05C62.5499 507.863 64.5572 510.869 65.4939 514.363C65.5608 514.525 65.7615 514.606 65.8284 514.444Z" fill="#FFC619"/>
<path d="M74.5265 543.287L70.7128 542.637" stroke="black" stroke-width="2" stroke-miterlimit="10" stroke-linecap="round"/>
<path d="M81.485 543.044L83.6261 543.45" stroke="black" stroke-width="2" stroke-miterlimit="10" stroke-linecap="round"/>
<path d="M66.2968 492.425C67.9695 487.875 67.8357 484.706 67.3674 482.919" stroke="black" stroke-width="2" stroke-miterlimit="10" stroke-linecap="round"/>
<path d="M71.6495 500.388C72.6932 500.582 73.7598 500.501 74.7754 500.15C75.7918 499.8 76.7338 499.188 77.5374 498.356" stroke="black" stroke-width="2" stroke-miterlimit="10" stroke-linecap="round"/>
<path d="M65.8284 514.444C65.8338 515.048 65.7662 515.651 65.6277 516.231" stroke="black" stroke-width="2" stroke-miterlimit="10" stroke-linecap="round"/>
<path d="M59.0038 506.806C56.5282 508.919 52.7813 508.594 50.1718 507.619" stroke="black" stroke-width="2" stroke-miterlimit="10" stroke-linecap="round"/>
<path d="M60.2081 496.406C59.2714 494.05 57.5318 491.369 55.926 490.475" stroke="black" stroke-width="2" stroke-miterlimit="10" stroke-linecap="round"/>
<path d="M71.3818 509.406C72.245 509.966 73.1683 510.376 74.1251 510.625" stroke="black" stroke-width="2" stroke-miterlimit="10" stroke-linecap="round"/>
<path d="M64.2227 500.713C65.3601 506.075 66.8321 505.75 67.5012 504.125C68.1703 502.5 68.6386 500.469 69.7092 500.631C70.7797 500.794 70.5121 503.069 69.2408 506.319C67.9695 509.569 65.8954 510.3 63.955 507.456C62.0147 504.613 61.9478 501.85 61.8809 499.9C61.8139 497.95 63.4867 497.463 64.2227 500.713Z" fill="#C40655"/>
<path d="M61.5463 517.612C62.3492 528.825 57.6656 534.187 56.1936 545.319" stroke="white" stroke-width="3.00593" stroke-miterlimit="10" stroke-linecap="round"/>
<path d="M72.0509 580.012C70.8466 575.219 70.3113 566.444 73.5898 558.725" stroke="black" stroke-width="2" stroke-miterlimit="10" stroke-linecap="round"/>
<path d="M71.315 568.069C70.5602 566.288 70.1916 564.302 70.2444 562.3" stroke="black" stroke-width="2" stroke-miterlimit="10" stroke-linecap="round"/>
<path d="M38.329 534.025L33.3778 535.975" stroke="black" stroke-width="2" stroke-miterlimit="10" stroke-linecap="round"/>
<path d="M87.5068 533.294L90.8523 534.431" stroke="black" stroke-width="2" stroke-miterlimit="10" stroke-linecap="round"/>
<path d="M147.189 587.162C146.822 587.814 146.396 588.414 145.918 588.95C143.777 591.55 138.893 594.475 136.283 595.694C134.298 596.457 132.472 597.731 130.93 599.431C128.99 601.3 126.581 603.819 124.909 602.356C122.802 600.001 120.876 597.417 119.155 594.637C119.057 594.492 118.993 594.317 118.97 594.131C118.946 593.946 118.964 593.756 119.021 593.581C119.957 590.331 122.968 585.7 127.317 583.262C127.461 583.193 127.618 583.171 127.77 583.201C127.924 583.229 128.067 583.306 128.187 583.425C130.73 585.619 132.269 586.187 134.343 586.106C136.417 586.025 140.432 584.4 143.71 583.262C146.989 582.125 147.055 583.912 147.189 587.162Z" fill="#FFC619"/>
<path d="M121.028 597.481C122.223 599.218 123.52 600.847 124.909 602.356C126.581 603.819 128.99 601.3 130.93 599.431C132.472 597.731 134.298 596.457 136.283 595.694C138.893 594.475 143.777 591.55 145.918 588.95C146.396 588.414 146.822 587.814 147.189 587.162C147.055 583.912 146.453 582.287 143.71 583.262C140.967 584.237 139.428 585.05 137.421 585.619C136.824 585.813 136.283 586.205 135.857 586.749C135.432 587.294 135.139 587.972 135.012 588.706C134.945 589.6 134.811 590.494 134.677 591.55C131.064 590.656 127.585 592.119 126.849 597.887C126.849 597.887 123.771 595.856 121.028 597.481Z" fill="#FFE75C"/>
<path d="M145.918 588.95L147.189 587.244C147.274 587.072 147.32 586.876 147.323 586.675C147.262 586.059 147.126 585.457 146.922 584.887C146.386 586.106 145.45 587.325 143.375 589.194C140.097 592.119 136.417 593.175 134.209 594.069C132.188 594.984 130.343 596.394 128.789 598.212C127.568 599.888 125.959 601.077 124.173 601.625L124.909 602.356C126.581 603.819 128.99 601.3 130.93 599.431C132.472 597.731 134.298 596.457 136.283 595.694C138.893 594.475 143.777 591.55 145.918 588.95Z" fill="white"/>
<path d="M105.104 592.606C101.691 591.469 98.2122 593.419 95.1344 600.487C94.2646 599.675 92.1235 598.781 88.9119 599.512C85.7003 600.244 84.4959 601.95 83.9607 603.25C83.6422 604.001 83.5478 604.862 83.693 605.687C83.8938 606.744 84.1614 608.125 84.5628 610.4C85.165 613.894 84.8305 616.981 86.4363 617.306L108.918 597.644C108.918 597.644 109.52 594.069 105.104 592.606Z" fill="#FFC619"/>
<path d="M105.104 592.606C101.691 591.469 98.2122 593.419 95.1344 600.487C94.7075 601.545 94.3275 602.63 93.9969 603.737C90.4508 603.331 88.7781 605.2 88.1759 609.344C88.1759 609.344 85.8341 607.394 84.429 609.669C84.4959 609.912 84.4959 610.156 84.5628 610.4C85.165 613.894 84.8305 616.981 86.4363 617.306L108.918 597.644C108.918 597.644 109.52 594.069 105.104 592.606Z" fill="#FFE75C"/>
<path d="M108.918 596.506L107.245 594.637C104.368 594.069 101.959 593.987 99.4165 597.481C96.874 600.975 95.2013 604.794 92.525 607.069C88.7112 610.481 85.4996 611.862 85.0312 614.381C84.5628 616.9 85.4996 617.144 86.4363 617.306L108.918 597.644C109 597.272 109 596.879 108.918 596.506Z" fill="white"/>
<path d="M106.04 593.419L107.646 593.987C107.786 594.015 107.919 594.08 108.034 594.178C108.151 594.278 108.246 594.407 108.315 594.556C108.936 595.829 109.194 597.313 109.051 598.781L103.163 597.481C105.104 596.344 105.773 595.287 105.572 593.906C105.552 593.83 105.551 593.749 105.569 593.671C105.587 593.594 105.623 593.526 105.673 593.474C105.723 593.421 105.785 593.389 105.85 593.379C105.915 593.369 105.982 593.383 106.04 593.419Z" fill="white"/>
<path d="M86.5701 617.388C92.3242 618.769 94.8668 616.575 97.3424 613.488C98.3694 612.108 99.5651 610.93 100.889 609.994C104.301 607.638 106.977 605.119 108.784 601.138C110.59 597.156 105.037 594.556 101.424 598.213C97.8107 601.869 97.61 606.175 90.4508 611.538C85.5665 615.275 84.8974 616.981 86.5701 617.388Z" fill="black"/>
<path d="M87.3884 604.707C87.4218 603.901 87.1201 603.226 86.714 603.201C86.3085 603.176 85.9519 603.81 85.9184 604.617C85.8843 605.423 86.1867 606.098 86.5922 606.122C86.9983 606.147 87.3549 605.514 87.3884 604.707Z" fill="white"/>
<path d="M147.39 586.187C147.272 585.364 147.047 584.568 146.721 583.831C146.654 583.75 146.587 583.669 146.52 583.75H146.453C146.319 583.75 146.319 583.831 146.319 583.912C146.654 585.619 146.788 587.569 146.052 588.706C147.591 587.244 147.457 586.431 147.39 586.187Z" fill="white"/>
<path d="M123.52 594.827C124.133 594.66 124.46 593.602 124.25 592.463C124.041 591.325 123.374 590.537 122.761 590.703C122.148 590.87 121.821 591.928 122.03 593.066C122.24 594.204 122.907 594.993 123.52 594.827Z" fill="white"/>
<path d="M173.684 716.512C201.987 716.512 225.204 702.212 255.714 669.55C286.225 636.887 296.93 626.162 305.561 616.006C314.192 605.85 313.59 599.269 309.107 586.269C304.624 573.269 301.68 575.137 301.68 575.137C301.145 564.575 292.648 547.106 283.281 533.05C273.913 518.994 268.293 521.269 257.989 521.269C247.685 521.269 244.273 524.681 239.656 539.631C235.04 554.581 223.531 567.256 201.786 571.887C180.041 576.519 168.131 576.275 167.529 589.519C166.927 602.762 167.529 625.594 157.894 643.631C145.917 650.661 133.325 656.03 120.358 659.637C112.731 661.75 111.125 667.844 110.389 675.806C109.653 683.769 112.329 688.075 113.6 690.594C110.991 693.6 111.526 694.9 112.798 701.969C113.333 704.812 113.935 707.656 114.47 710.175C114.907 712.006 115.821 713.614 117.076 714.757C118.332 715.901 119.86 716.517 121.429 716.512H173.684Z" fill="#66BCFF"/>
<path d="M110.389 675.806C109.653 683.769 112.329 688.075 113.6 690.594L165.99 697.906L216.707 688.887C216.707 688.887 250.161 656.144 245.611 645.256C241.061 634.369 231.493 644.606 218.714 655.169C205.934 665.731 192.686 666.706 177.498 664.025C162.31 661.344 143.91 653.462 120.358 659.637C112.731 661.75 111.125 667.844 110.389 675.806Z" fill="#45AAF7"/>
<path d="M251.031 639.813C251.098 625.756 250.696 622.425 254.577 623.075C258.457 623.725 264.814 625.269 264.814 625.269L257.922 638.513L251.031 639.813Z" fill="#A3E1FF"/>
<path d="M271.371 617.956C271.371 611.131 270.903 606.663 272.441 605.688C273.98 604.713 275.787 605.931 278.998 609.425C282.21 612.919 271.371 617.956 271.371 617.956Z" fill="#A3E1FF"/>
<path d="M116.946 688.888C116.076 680.681 116.277 674.181 118.083 672.556C119.89 670.931 121.63 674.669 122.901 677.919C124.521 682.043 126.543 685.916 128.923 689.456L116.946 688.888Z" fill="#A3E1FF"/>
<path d="M175.023 690.675C177.231 679.706 179.104 677.025 180.977 676.862C182.851 676.7 183.788 681.9 186.464 689.294L182.048 691.812L175.023 690.675Z" fill="#A3E1FF"/>
<path d="M295.458 590.331C267.022 623.725 250.027 642.087 226.208 663.619C202.388 685.15 191.75 690.756 171.744 690.756C151.738 690.756 138.892 677.106 113.6 690.594C110.991 693.6 111.526 694.9 112.798 701.969C113.333 704.812 113.935 707.656 114.47 710.175C114.907 712.006 115.821 713.614 117.076 714.757C118.332 715.901 119.86 716.517 121.429 716.512H173.684C201.987 716.512 225.204 702.212 255.714 669.55C286.225 636.887 296.93 626.162 305.561 616.006C314.192 605.85 313.59 599.269 309.107 586.269C304.624 573.269 301.68 575.137 301.68 575.137C301.68 578.794 301.881 582.694 295.458 590.331Z" fill="white"/>
<path d="M309.442 587.162C309.375 591.875 306.966 597.237 300.409 604.55C287.563 618.769 261 647.856 242.734 666.706C222.728 687.587 204.128 704.812 179.372 704.812C170.74 704.812 161.306 702.619 152.14 700.506C136.015 696.769 120.693 693.275 112.931 702.7C112.998 703.187 113.132 703.756 113.199 704.244C120.425 694.575 135.747 698.069 151.939 701.806C161.172 703.919 170.673 706.112 179.372 706.112C204.462 706.112 224 687.912 243.403 667.762C261.669 648.831 288.299 619.662 301.078 605.525C305.896 600.162 309.375 595.206 310.245 589.762L309.442 587.162Z" fill="#FFE75C"/>
<path d="M234.571 690.187L225.271 664.512C221.703 667.708 218.424 670.552 215.435 673.044L214.632 674.181C218.112 672.394 221.591 674.75 221.859 681.981C221.925 685.881 221.925 693.762 221.925 700.1C226.286 697.077 230.507 693.768 234.571 690.187Z" fill="black"/>
<path d="M125.309 710.012C119.957 710.094 117.347 712.694 119.488 715.212C120.268 716.092 121.302 716.559 122.365 716.512H168.332C145.449 716.512 143.107 709.687 125.309 710.012Z" fill="black"/>
<path d="M282.946 566.606C276.055 577.331 273.646 581.556 276.523 593.012C277.727 597.969 279.266 603.25 280.537 607.637L295.458 590.331C301.881 582.694 301.681 578.794 301.681 575.137C301.212 566.119 294.99 552.062 287.295 539.387C291.176 546.212 289.838 555.881 282.946 566.606Z" fill="#45AAF7"/>
<path d="M273.78 552.956C277.727 534.675 277.326 522.487 267.624 521.269C264.747 520.944 261.669 521.269 257.989 521.269C247.618 521.269 244.273 524.681 239.656 539.631C235.04 554.581 223.531 567.256 201.786 571.887C180.041 576.519 168.131 576.275 167.529 589.519C166.927 602.762 167.529 625.594 157.894 643.631C156.489 646.637 158.162 648.669 178.167 648.669C198.173 648.669 210.083 647.206 213.428 637.05C216.774 626.894 221.591 604.712 224 595.937C226.408 587.162 226.007 582.125 239.322 578.469C252.637 574.812 270.033 570.587 273.78 552.956Z" fill="#8CD9FF"/>
<path d="M227.546 576.194C238.251 570.831 245.812 572.05 257.186 565.469C268.561 558.888 270.033 554.013 271.438 544.994C272.843 535.975 273.846 525.331 266.955 524.6C260.063 523.869 253.841 524.194 250.696 525.494C247.551 526.794 246.749 529.15 243.336 537.681C239.924 546.213 238.251 558.888 222.929 567.175L227.546 576.194Z" fill="black"/>
<path d="M137.353 684.825C137.42 688.969 138.357 694.9 140.23 695.469C142.104 696.038 142.973 691.406 144.914 685.638C142.84 683.038 137.353 680.356 137.353 684.825Z" fill="#A3E1FF"/>
<path d="M222.728 665.975C221.07 666.058 219.449 666.585 217.978 667.519C211.755 671.337 211.822 674.587 212.023 675.725C220.52 669.469 224.267 676.375 226.676 696.606C227.613 704.569 229.285 708.469 234.103 708.469C239.991 708.469 243.47 703.431 243.069 690.431C242.978 687.978 242.755 685.536 242.399 683.119C240.727 672.231 237.248 661.262 228.817 661.262C227.552 661.339 226.327 661.813 225.259 662.64C224.191 663.466 223.319 664.616 222.728 665.975Z" fill="#FF78B9"/>
<path d="M285.555 629.331C281.942 633.231 278.329 633.556 277.526 630.144C276.724 626.731 278.932 620.719 282.545 616.9L288.834 610.156C292.447 606.256 296.06 605.931 296.863 609.344C297.666 612.756 295.391 618.769 291.845 622.587L285.555 629.331Z" fill="#FFA8D2"/>
<path d="M222.728 665.975C228.349 666.706 232.631 669.875 234.437 678.487C235.709 684.581 235.307 691.731 236.177 697.906" stroke="black" stroke-width="2" stroke-linecap="round" stroke-linejoin="round"/>
<path d="M286.76 568.475L285.087 571.238C279.801 579.606 277.861 582.694 283.481 604.225L284.351 603.25C279.065 582.938 280.805 580.094 285.89 572.05L287.63 569.288C291.778 562.463 293.317 555.719 293.183 549.95L291.979 547.675C292.648 553.606 291.31 561 286.76 568.475Z" fill="#5865F2"/>
<path d="M210.551 680.925C211.086 677.269 210.417 675.481 208.878 675.725C207.339 675.969 206.001 677.106 204.529 681.25C205.734 697.094 209.213 690.919 210.551 680.925Z" fill="#A3E1FF"/>
<path d="M265.551 527.2L276.056 525.575C277.729 525.331 278.331 520.7 279.067 514.85C279.803 509 278.933 498.356 278.933 498.356L268.094 502.338L265.551 527.2Z" fill="#FF78B9"/>
<path d="M294.723 494.538C290.24 488.444 267.492 467.156 267.492 467.156L262.139 476.5C262.139 476.5 269.7 486.656 275.119 493.481C264.146 494.538 244.341 497.706 244.341 497.706C230.29 494.294 224.336 492.669 224.336 492.669L238.788 476.013L233.502 466.425C233.502 466.425 219.719 476.663 211.957 484.056C204.196 491.45 202.925 500.55 210.285 507.456C217.645 514.362 220.12 516.475 220.12 516.475L267.558 522.406C281.475 517.694 289.772 512.575 294.79 507.294C299.808 502.013 299.206 500.631 294.723 494.538Z" fill="#FFC619"/>
<path d="M216.173 491.775C217.845 492.1 220.789 493.075 220.789 493.075" stroke="black" stroke-width="2" stroke-linecap="round" stroke-linejoin="round"/>
<path d="M264.615 464.231L259.864 473.9L265.217 480.563C266.956 478.206 268.696 474.063 268.161 467.806L264.615 464.231Z" fill="black"/>
<path d="M233.837 506.481C227.413 496.894 225.138 492.75 223.8 487.956C222.864 484.463 228.551 486.575 235.911 489.256C243.271 491.938 242.133 494.456 233.837 506.481Z" fill="#FF78B9"/>
<path d="M224.603 492.425C217.845 501.606 217.712 512.819 218.448 528.5C218.448 528.5 206.805 542.719 208.478 555.15C210.151 567.581 226.075 572.944 244.207 572.7C258.793 572.537 260.399 568.394 261.737 560.025C262.54 554.581 263.142 548.325 263.544 543.45C263.949 538.326 265.01 533.308 266.689 528.581C275.654 503.313 268.428 494.213 268.428 494.213L244.207 496.569L224.603 492.425Z" fill="#FF78B9"/>
<path d="M229.956 479.263C224.269 484.381 225.473 492.181 233.502 502.906L237.115 507.294L260.466 502.663C267.96 491.369 266.488 483.813 263.745 479.1C267.558 471.463 267.826 466.181 267.759 461.469C267.692 453.506 261.737 440.994 246.75 441.156C238.587 441.238 231.361 445.138 228.751 457.731C227.815 462.119 227.614 469.269 229.956 479.263Z" fill="#FFE75C"/>
<path d="M258.86 451.475C259.039 451.474 259.216 451.519 259.38 451.606C259.543 451.694 259.69 451.822 259.81 451.983C259.93 452.144 260.021 452.334 260.076 452.541C260.132 452.747 260.15 452.965 260.132 453.181L259.329 464.15C259.091 466.61 258.138 468.887 256.642 470.57C255.146 472.253 253.204 473.232 251.166 473.331H249.359C247.229 473.356 245.164 472.437 243.551 470.748C241.938 469.058 240.887 466.713 240.594 464.15L240.26 460.494C240.211 460.063 240.034 459.669 239.763 459.385C239.492 459.101 239.146 458.946 238.788 458.95C238.419 458.948 238.064 459.114 237.791 459.415C237.519 459.716 237.349 460.13 237.316 460.575L236.914 466.425C236.766 468.358 236.035 470.157 234.862 471.477C233.689 472.796 232.156 473.543 230.558 473.575C229.599 473.619 228.644 473.41 227.759 472.962C226.874 472.514 226.079 471.837 225.43 470.98C224.781 470.122 224.293 469.103 224 467.994C223.707 466.885 223.616 465.712 223.733 464.556L224.536 453.506C224.584 453.068 224.757 452.664 225.027 452.366C225.296 452.069 225.644 451.897 226.008 451.881L258.86 451.475Z" fill="black"/>
<path d="M259.73 451.881L267.759 461.469V463.419L259.797 456.675L259.73 451.881Z" fill="black"/>
<path d="M268.428 494.131C264.662 489.811 260.227 486.442 255.381 484.219C251.032 482.35 250.028 481.862 249.025 484.869C248.021 487.875 246.951 491.287 246.549 492.425C246.148 493.562 241.397 497.462 238.52 500.387C235.643 503.312 232.632 509.569 232.632 509.569L263.142 512.412L268.428 494.131Z" fill="#FF78B9"/>
<path d="M274.985 493.319L278.933 498.356C277.126 505.181 275.989 513.713 275.32 523.219L259.73 524.6L268.428 494.213L274.985 493.319Z" fill="#FF78B9"/>
<path d="M224.603 492.425L221.726 491.775C221.284 491.697 220.835 491.737 220.407 491.891C219.98 492.046 219.585 492.311 219.25 492.669C215.975 496.289 213.766 501.112 212.961 506.4C212.091 512.575 212.359 513.225 218.247 517.044C222.194 519.644 226.276 508.269 228.484 500.55C228.74 499.708 228.84 498.809 228.777 497.915C228.714 497.021 228.489 496.155 228.118 495.378C227.747 494.602 227.24 493.935 226.632 493.424C226.025 492.914 225.332 492.573 224.603 492.425Z" fill="#FF78B9"/>
<path d="M227.413 555.637C222.291 548.388 216.524 541.848 210.218 536.137L195.23 545.644L200.115 563.356C200.115 563.356 204.129 569.531 207.876 574.406C211.623 579.281 218.381 579.444 230.826 580.744C235.509 570.587 233.368 564.169 227.413 555.637Z" fill="#2835BD"/>
<path d="M202.992 563.031L204.33 555.15" stroke="black" stroke-width="2" stroke-linecap="round" stroke-linejoin="round"/>
<path d="M255.582 552.306C254.377 548.325 250.697 545.156 234.238 544.181L228.149 536.706L211.221 552.388C217.243 564.738 224.068 579.606 230.826 580.744C237.583 581.881 243.672 581.313 251.701 575.381C256.786 571.563 257.455 569.775 257.589 566.525C257.487 561.693 256.811 556.904 255.582 552.306Z" fill="#3442D9"/>
<path d="M273.781 552.956C270.034 570.588 252.638 574.731 239.323 578.469C227.279 581.8 226.477 586.188 224.67 593.5L215.57 590.575V579.2L227.547 576.194C238.252 570.831 245.813 572.05 257.188 565.469C268.562 558.888 270.034 554.013 271.439 544.994C272.309 539.713 272.978 533.7 271.908 529.556L275.721 530.206C276.725 535.731 275.855 543.531 273.781 552.956Z" fill="#8CD9FF"/>
<path d="M171.946 570.425C171.059 571.077 170.378 572.074 170.014 573.252C169.65 574.431 169.624 575.725 169.939 576.925C171.879 584.4 172.749 590.169 170.942 608.369C169.136 626.569 166.125 636.644 164.72 640.381C164.634 640.603 164.592 640.847 164.598 641.092C164.605 641.337 164.66 641.576 164.757 641.791C164.856 642.005 164.994 642.188 165.162 642.325C165.33 642.461 165.523 642.547 165.724 642.575C173.217 643.956 184.458 643.794 196.769 641.844C198.846 641.513 200.814 640.519 202.471 638.963C204.128 637.407 205.416 635.345 206.203 632.987C209.368 623.45 211.962 613.648 213.965 603.656C218.448 581.231 217.912 581.637 227.547 576.194C226.811 568.15 226.878 560.431 219.652 559.294C211.221 557.994 201.988 563.031 188.74 567.419C185.729 564.169 182.986 562.544 171.946 570.425Z" fill="#45AAF7"/>
<path d="M208.211 560.512C202.657 562.137 196.368 564.9 188.74 567.419C186.532 565.062 184.458 563.519 179.172 566.037C178.976 566.645 178.82 567.27 178.704 567.906C176.295 582.45 171.745 606.256 185.395 604.956C199.044 603.656 200.583 593.825 200.182 584.887C199.78 575.95 198.91 570.994 200.182 568.394C201.453 565.794 205.936 561.244 208.211 560.512Z" fill="#287CEB"/>
<path d="M220.455 581.069C219.518 571.563 218.916 567.013 216.775 565.225C214.634 563.438 213.898 564.006 211.088 564.738C208.277 565.469 204.731 566.769 200.182 568.394C191.684 571.4 181.113 575.219 177.098 574.894L175.76 574.65C176.697 573.431 182.451 570.913 186.265 569.206L188.941 567.988C189.004 567.969 189.063 567.935 189.114 567.888C189.166 567.84 189.209 567.78 189.24 567.711C189.271 567.642 189.291 567.567 189.297 567.488C189.303 567.41 189.295 567.331 189.275 567.256L188.74 567.419L188.272 566.931L185.863 567.988C176.964 571.969 174.422 573.35 174.622 574.894C174.823 576.438 175.827 576.113 177.031 576.194C181.179 576.519 191.417 572.863 200.516 569.613C204.999 567.988 208.88 566.606 211.288 566.038C213.697 565.469 215.236 565.469 216.173 566.281C217.109 567.094 218.581 572.781 219.451 582.369L220.455 581.069Z" fill="black"/>
<path d="M223.867 462.931L236.58 451.719L231.829 451.8L224.202 458.544L223.867 462.931Z" fill="#5865F2"/>
<path d="M226.945 472.438C228.04 473.213 229.29 473.607 230.558 473.575C232.156 473.543 233.689 472.796 234.862 471.477C236.035 470.157 236.766 468.358 236.914 466.425L237.115 463.5L226.945 472.438Z" fill="#5865F2"/>
<path d="M258.86 451.475H253.575L240.527 462.931V464.15C240.678 465.407 241.018 466.619 241.531 467.725L259.663 451.881C259.438 451.646 259.157 451.504 258.86 451.475Z" fill="#5865F2"/>
<path d="M259.329 464.15L259.73 458.869L244.876 471.95C246.248 472.872 247.792 473.347 249.359 473.331H251.166C253.204 473.232 255.146 472.253 256.642 470.57C258.138 468.886 259.091 466.61 259.329 464.15Z" fill="#5865F2"/>
<path d="M236.245 474.55C238.03 474.077 239.879 474.077 241.665 474.55" stroke="black" stroke-width="2" stroke-linecap="round" stroke-linejoin="round"/>
<path d="M180.176 539.062C180.243 539.306 180.31 539.469 180.377 539.469C180.443 539.469 180.51 539.388 180.577 539.144" fill="black"/>
<path d="M191.55 535.325C184.324 538.737 174.221 545.887 165.523 551.819C160.705 555.069 159.233 557.019 161.776 562.95C164.319 568.881 169.136 574.569 172.749 578.469C176.362 582.369 178.369 580.744 181.046 578.631L200.115 563.356L210.218 536.137C206.003 532.562 198.843 531.831 191.55 535.325Z" fill="#2835BD"/>
<path d="M171.143 567.581C174.221 568.312 174.221 568.719 178.035 565.712C181.849 562.706 201.051 548.65 202.992 547.106" stroke="#4150F2" stroke-width="2" stroke-miterlimit="10" stroke-linecap="round"/>
<path d="M219.451 526.712C216.44 524.031 214.366 523.869 198.174 522.244C181.982 520.619 174.422 518.587 172.548 522.162C170.675 525.737 172.348 534.675 174.221 541.419C176.094 548.162 177.165 550.356 179.774 550.6C182.384 550.844 206.739 551.819 211.221 552.387L213.429 556.937L234.238 544.181C234.238 544.181 222.395 529.394 219.451 526.712Z" fill="#3442D9"/>
<path d="M168.065 562.138C164.051 558.156 162.445 557.425 162.913 560.106C163.382 562.788 165.924 566.769 168.668 570.344C171.411 573.919 174.556 577.575 175.626 577.331C176.697 577.088 175.425 574.65 173.753 570.75C172.324 567.467 170.394 564.544 168.065 562.138Z" fill="black"/>
<path d="M172.481 568.069L169.136 570.913L166.393 573.269C163.114 576.194 164.452 578.55 164.72 581.313C164.988 584.075 164.252 586.106 162.713 586.106C161.174 586.106 158.899 578.306 157.293 574.569C155.687 570.831 150.402 567.825 147.658 564.981C146.521 563.763 146.253 561.731 147.658 561.081C147.056 560.025 146.253 557.344 148.26 556.531C150.268 555.719 153.279 560.188 154.951 561.569C156.624 562.95 158.698 564.25 160.237 563.438C161.295 562.866 162.323 562.214 163.315 561.488L165.59 559.781L168.065 562.138C169.745 563.871 171.23 565.864 172.481 568.069Z" fill="#FF78B9"/>
<path d="M273.781 552.956C270.034 570.588 252.638 574.731 239.323 578.469C226.008 582.206 226.41 587.081 224.001 595.938C221.592 604.794 216.775 626.975 213.429 637.05L257.924 605.281L276.123 563.356L273.781 552.956Z" fill="#66BCFF"/>
<path d="M222.194 624.294C220.722 630.55 219.518 635.263 218.849 638.675C218.18 642.088 221.258 641.763 224.536 640.625C227.815 639.488 229.22 637.781 228.685 634.287C228.149 630.794 223.8 617.225 222.194 624.294Z" fill="white"/>
<path d="M168.065 562.138L165.59 559.781C164.988 559.7 164.653 559.7 164.385 559.944C164.118 560.188 164.185 560.35 164.252 560.756C165.79 560.431 169.604 563.763 169.738 570.344C170.608 570.831 171.076 571.156 171.411 570.913C171.745 570.669 172.214 569.531 172.481 568.069C171.23 565.864 169.745 563.871 168.065 562.138Z" fill="black"/>
<path d="M162.177 582.531C161.508 579.444 159.233 573.106 157.293 570.588C155.353 568.069 152.275 562.138 151.271 560.188C150.268 558.238 147.658 555.8 147.056 557.994C146.926 559.078 147.141 560.183 147.658 561.081C146.253 561.731 146.521 563.763 147.658 564.981C150.402 567.825 155.553 570.425 157.293 574.569C159.033 578.713 160.237 584.725 162.111 585.944L162.646 586.106C162.98 586.025 162.78 584.888 162.177 582.531Z" fill="#DE3A93"/>
<path d="M238.721 436.281C237.873 439.183 237.779 442.332 238.453 445.3C238.56 445.822 238.81 446.284 239.164 446.61C239.516 446.935 239.951 447.103 240.394 447.088H244.475C244.929 447.09 245.379 446.976 245.794 446.752C246.209 446.527 246.581 446.199 246.884 445.788C249.359 442.619 253.842 441.806 257.321 443.594L259.396 439.938C259.618 439.579 259.727 439.136 259.702 438.689C259.677 438.241 259.521 437.819 259.262 437.5C257.233 435.172 254.812 433.407 252.167 432.327C249.521 431.246 246.714 430.877 243.94 431.244C242.771 431.414 241.664 431.976 240.743 432.865C239.821 433.754 239.121 434.937 238.721 436.281Z" fill="#FF8C19"/>
<path d="M275.587 519.4C275.32 523.219 275.855 524.519 276.591 522.975C277.108 521.589 277.425 520.104 277.528 518.588L275.587 519.4Z" fill="black"/>
<path d="M267.558 494.456C261.804 495.35 258.593 496.569 255.716 498.194" stroke="black" stroke-width="2" stroke-linecap="round" stroke-linejoin="round"/>
<path d="M279.334 499.331L281.81 502.338" stroke="black" stroke-width="2" stroke-linecap="round" stroke-linejoin="round"/>
<path d="M264.681 528.175C264.681 528.175 261.67 530.856 259.73 532.806" stroke="black" stroke-width="2" stroke-linecap="round" stroke-linejoin="round"/>
<path d="M238.252 507.213L237.717 516.8H234.171C234.378 513.653 234.781 510.53 235.375 507.456C235.508 506.932 235.711 506.437 235.978 505.994C236.868 504.641 237.903 503.439 239.055 502.419L245.211 496.813C246.953 495.253 248.279 493.105 249.025 490.638C249.895 487.875 250.965 484.381 251.433 483.65" stroke="#F551A0" stroke-width="2" stroke-linecap="round" stroke-linejoin="round"/>
<path d="M275.521 493.969C272.71 502.581 269.633 517.206 271.974 524.194C272.209 524.852 272.501 525.478 272.844 526.062L274.182 525.9C273.676 525.262 273.268 524.52 272.978 523.706C270.837 517.45 273.513 503.963 276.323 495.025L275.521 493.969Z" fill="#F551A0"/>
<path d="M213.563 513.387C213.831 513.771 214.147 514.1 214.5 514.362C215.169 504.856 218.381 496.813 223.332 492.1L221.994 491.856C217.377 496.65 214.299 504.369 213.563 513.387Z" fill="#F551A0"/>
<path d="M267.291 527.606L259.864 528.662" stroke="black" stroke-width="2" stroke-linecap="round" stroke-linejoin="round"/>
<path d="M257.321 562.056C254.645 564.25 248.958 567.581 245.345 568.556C244.442 568.781 243.523 568.89 242.602 568.881C241.152 568.947 239.712 568.581 238.406 567.817C237.1 567.052 235.968 565.912 235.108 564.494L231.629 558.563C228.618 553.363 224.804 546.944 222.061 542.313C221.994 542.15 221.994 542.069 221.927 541.988C217.778 534.919 215.57 531.831 212.493 531.263C209.415 530.694 200.516 529.719 184.926 528.256C181.046 527.931 180.443 528.013 179.708 530.125C179.686 530.205 179.651 530.278 179.604 530.339C179.557 530.4 179.499 530.448 179.436 530.478C179.372 530.509 179.303 530.523 179.234 530.518C179.166 530.513 179.099 530.49 179.038 530.45C178.915 530.38 178.816 530.262 178.755 530.114C178.694 529.967 178.676 529.799 178.704 529.638C179.774 526.469 181.38 526.631 184.993 526.956C194.093 527.85 209.683 529.313 212.693 529.963C215.704 530.613 218.983 534.756 222.797 541.256C222.797 541.338 222.864 541.419 222.93 541.5C225.674 546.131 229.421 552.631 232.498 557.75L235.978 563.763C237.851 566.931 241.263 568.231 245.077 567.256C248.891 566.281 255.113 562.381 257.188 560.594C257.265 561.076 257.31 561.566 257.321 562.056Z" fill="#5865F2"/>
<path d="M174.622 523.544C172.682 525.737 173.686 530.044 175.024 535.975C176.362 541.906 178.035 547.269 178.905 547.106C179.774 546.944 180.243 544.831 180.443 541.744C180.644 538.656 180.577 533.131 179.574 528.987C178.57 524.844 176.094 521.837 174.622 523.544Z" fill="black"/>
<path d="M180.577 539.144L175.626 538.412C173.217 538.006 170.809 537.762 168.4 537.6C167.932 541.094 166.928 545.562 165.523 547.35C164.118 549.137 161.642 549.056 161.375 544.994C161.107 540.931 161.308 535.162 159.1 523.137C158.297 518.669 156.825 515.987 156.29 512.575C155.754 509.163 157.36 508.594 158.832 508.919C158.497 506.644 158.631 503.719 160.973 503.313C163.315 502.906 164.252 505.344 164.252 508.513C164.599 507.929 165.099 507.506 165.671 507.314C166.243 507.122 166.851 507.172 167.396 507.456C169.002 508.188 169.337 510.625 169.136 514.525C168.935 518.425 168.868 522.569 170.206 523.95C171.545 525.331 171.879 524.844 173.753 525.169L178.302 525.656C178.845 526.694 179.273 527.814 179.574 528.987C180.266 532.307 180.603 535.72 180.577 539.144Z" fill="#FF78B9"/>
<path d="M180.577 539.144C180.603 535.72 180.266 532.307 179.574 528.987C179.273 527.814 178.845 526.694 178.302 525.656H177.7C179.373 528.256 180.377 535.081 177.7 538.738C178.077 539.125 178.507 539.427 178.972 539.631C179.537 539.697 180.104 539.526 180.577 539.144Z" fill="black"/>
<path d="M167.463 512.25C167.731 508.431 165.523 506.806 164.252 508.513C164.252 505.344 163.382 502.906 160.973 503.313C158.564 503.719 158.497 506.644 158.832 508.919C157.36 508.594 155.754 509.244 156.29 512.575C156.825 515.906 158.297 518.669 159.1 523.138C161.308 535.163 161.04 540.2 161.375 544.994C161.379 545.96 161.637 546.899 162.111 547.675C163.649 549.625 164.319 547.269 164.252 543.694C164.215 538.099 164.483 532.508 165.055 526.956C165.724 520.456 167.263 516.069 167.463 512.25Z" fill="#DE3A93"/>
<path d="M161.241 503.313C163.315 503.231 163.382 506.4 163.315 509.894L164.252 508.513C164.252 505.506 163.449 503.069 161.241 503.313Z" fill="#FF78B9"/>
<path d="M214.968 543.287C213.916 546.435 212.664 549.478 211.221 552.387C214.299 550.762 215.57 549.95 215.57 549.95" stroke="black" stroke-width="2" stroke-linecap="round" stroke-linejoin="round"/>
<path d="M234.84 544.912L241.932 553.687C247.687 554.581 249.025 556.044 250.564 558.4" stroke="black" stroke-width="2" stroke-linecap="round" stroke-linejoin="round"/>
<path d="M241.932 553.688L248.423 553.931" stroke="black" stroke-width="2" stroke-linecap="round" stroke-linejoin="round"/>
<path d="M224.269 635.831C223.399 638.512 221.927 640.3 220.99 639.894C220.053 639.487 220.053 638.187 220.99 635.669C221.394 634.647 221.729 633.587 221.994 632.5C222.529 630.144 223.533 629.737 224.269 630.144C225.005 630.55 225.205 633.069 224.269 635.831Z" fill="black"/>
<path d="M171.678 599.675C171.612 601.056 171.478 602.6 171.344 604.225L186.331 606.256L170.541 612.269C170.206 615.031 169.872 617.55 169.537 619.906L179.975 621.206C176.429 622.75 172.548 624.375 168.4 626.325C167.865 629.196 167.329 631.633 166.794 633.637L171.678 633.8L166.192 635.669C165.79 637.278 165.298 638.853 164.72 640.381C164.652 640.59 164.607 640.809 164.586 641.031C170.541 638.756 176.563 636.887 182.384 635.344C188.327 636.646 194.185 638.465 199.914 640.787C201.362 640.048 202.662 638.94 203.728 637.537C201.453 636.562 198.107 635.262 194.026 633.881L191.684 633.15C197.238 632.012 202.389 631.037 207.073 630.306C207.809 628.031 208.612 625.35 209.415 622.425C205.066 621.206 200.583 620.231 196.234 619.337C202.523 616.981 207.475 615.275 211.623 614.056C212.292 611.294 212.961 608.369 213.63 605.281L204.597 604.144L214.567 600.406L215.637 595.287L195.23 602.844L171.678 599.675ZM205.333 626C198.509 627.137 190.547 628.6 182.25 630.794C179.127 630.144 175.849 629.656 172.414 629.331C178.369 626.65 183.588 624.375 188.272 622.506C193.691 623.4 199.579 624.537 205.333 626ZM211.088 609.506C205.4 611.212 198.04 613.731 187.937 617.875C182.518 616.981 177.633 616.331 173.686 615.844L195.632 607.475L211.088 609.506Z" fill="#3F4EEB"/>
<path d="M171.946 593.256C171.879 594.8 171.879 596.506 171.745 598.456C188.874 597.806 208.478 595.287 215.838 594.231C216.24 592.119 216.641 590.331 217.042 588.787C211.757 589.6 190.413 592.606 171.946 593.256Z" fill="#3F4EEB"/>
<path d="M200.917 636.4L203.728 637.538C202.662 638.94 201.362 640.048 199.914 640.788L197.238 639.731C198.643 638.946 199.896 637.811 200.917 636.4Z" fill="black"/>
<path d="M207.207 621.856L209.415 622.425C208.612 625.35 207.809 628.031 207.073 630.306L204.129 630.794C205.378 627.935 206.409 624.944 207.207 621.856Z" fill="black"/>
<path d="M211.021 604.956L213.63 605.281C212.961 608.369 212.292 611.294 211.623 614.056L208.947 614.869C209.348 613.244 209.683 611.538 210.017 609.831C210.084 609.669 210.084 609.506 210.151 609.344C210.419 607.881 210.753 606.419 211.021 604.956Z" fill="black"/>
<path d="M212.76 596.344L215.637 595.287L214.567 600.406L211.69 601.462C212.024 599.756 212.426 598.05 212.76 596.344Z" fill="black"/>
<path d="M217.042 588.787C216.641 590.331 216.24 592.119 215.838 594.231L213.095 594.556L214.299 589.194L217.042 588.787Z" fill="black"/>
<path d="M166.192 635.669L169.537 634.531C169.069 636.319 168.601 638.025 168.065 639.731L164.586 641.031C164.607 640.809 164.652 640.59 164.72 640.381C165.298 638.853 165.79 637.278 166.192 635.669Z" fill="black"/>
<path d="M168.4 626.325L171.411 624.944C170.942 628.031 170.407 630.875 169.738 633.719H166.794C167.329 631.661 167.865 629.196 168.4 626.325Z" fill="black"/>
<path d="M170.541 612.269L173.017 611.294C172.749 614.462 172.414 617.387 172.08 620.231L169.537 619.906C169.872 617.55 170.206 615.031 170.541 612.269Z" fill="black"/>
<path d="M171.678 599.675L173.953 600L173.552 604.469L171.344 604.225C171.478 602.6 171.612 601.056 171.678 599.675Z" fill="black"/>
<path d="M174.489 593.175L174.087 598.375H171.745C171.879 596.425 171.879 594.719 171.946 593.175H174.489Z" fill="black"/>
<path d="M239.658 613.813L239.791 620.719C239.795 621.077 239.878 621.427 240.029 621.734C240.181 622.042 240.397 622.295 240.655 622.468C240.913 622.641 241.205 622.729 241.499 622.721C241.794 622.713 242.082 622.611 242.334 622.425C242.636 622.185 242.869 621.838 243 621.43C243.132 621.023 243.156 620.575 243.07 620.15L241.13 612.025L239.658 613.813Z" fill="white"/>
<path d="M229.889 593.013C235.242 595.044 236.312 601.95 237.45 613.65C237.472 613.938 237.559 614.213 237.698 614.447C237.838 614.682 238.027 614.866 238.245 614.982C238.463 615.098 238.703 615.141 238.94 615.107C239.176 615.073 239.401 614.962 239.591 614.788L241.464 613.081C241.955 612.656 242.339 612.074 242.575 611.4C242.812 610.727 242.89 609.987 242.802 609.263C242.602 607.8 242.267 605.525 241.932 602.438C241.13 596.425 237.851 589.113 231.562 588.219C231.22 588.177 230.877 588.264 230.577 588.467C230.278 588.671 230.038 588.982 229.889 589.356C229.569 590.282 229.41 591.278 229.421 592.281C229.428 592.447 229.477 592.606 229.56 592.736C229.644 592.866 229.758 592.963 229.889 593.013Z" fill="#3F4EEB"/>
</g>
</g>
<defs>
<clipPath id="clip0_7_3">
<rect width="430" height="717" fill="white"/>
</clipPath>
<clipPath id="clip1_7_3">
<rect width="461" height="286" fill="white" transform="translate(-108 431)"/>
</clipPath>
</defs>
</svg>
